<?xml version="1.0" standalone="no"?>
<!DOCTYPE svg PUBLIC "-//W3C//DTD SVG 20010904//EN"
 "http://www.w3.org/TR/2001/REC-SVG-20010904/DTD/svg10.dtd">
<svg version="1.0" xmlns="http://www.w3.org/2000/svg"
 width="322.000000pt" height="322.000000pt" viewBox="0 0 322.000000 322.000000"
 preserveAspectRatio="xMidYMid meet">
<metadata>
Created by potrace 1.14, written by Peter Selinger 2001-2017
</metadata>
<g transform="translate(0.000000,322.000000) scale(0.100000,-0.100000)"
fill="#000000" stroke="none">
<path d="M1379 3205 c-704 -115 -1233 -649 -1344 -1358 -22 -144 -13 -431 18
-572 46 -206 116 -377 222 -540 229 -356 575 -601 980 -695 132 -31 143 -32
325 -35 247 -5 412 24 620 110 531 217 894 681 985 1260 22 136 14 420 -15
554 -137 646 -612 1126 -1245 1261 -131 28 -420 36 -546 15z"/>
</g>
</svg>
